TOMBSTONE 1993 DvDRip H264 PsP

Format                           : MPEG-4
Format profile                   : Base Media / Version 2
Codec ID                         : mp42
File size                        : 440 MiB
Duration                         : 2h 13mn
Overall bit rate                 : 461 Kbps
Encoded date                     : UTC 2010-04-12 18:34:02
Tagged date                      : UTC 2010-04-12 18:34:29
Writing application              : mp4creator 1.6.1d

Video
ID                               : 1
Format                           : AVC
Format/Info                      : Advanced Video Codec
Format profile                   : Baseline@L1.3
Format settings, CABAC           : No
Format settings, ReFrames        : 1 frame
Codec ID                         : avc1
Codec ID/Info                    : Advanced Video Coding
Duration                         : 2h 13mn
Bit rate mode                    : Variable
Bit rate                         : 385 Kbps
Width                            : 480 pixels
Height                           : 272 pixels
Display aspect ratio             : 16:9
Frame rate mode                  : Constant
Frame rate                       : 24.000 fps
Resolution                       : 24 bits
Colorimetry                      : 4:2:0
Scan type                        : Progressive
Bits/(Pixel*Frame)               : 0.123
Stream size                      : 368 MiB (84%)
Encoded date                     : UTC 2010-04-12 18:34:02
Tagged date                      : UTC 2010-04-12 18:34:24

Audio
ID                               : 2
Format                           : AAC
Format/Info                      : Advanced Audio Codec
Format version                   : Version 4
Format profile                   : LC
Format settings, SBR             : Yes
Format settings, PS              : No
Codec ID                         : 40
Duration                         : 2h 13mn
Bit rate mode                    : Variable
Bit rate                         : 74.3 Kbps
Maximum bit rate                 : 94.8 Kbps
Channel(s)                       : 2 channels
Channel positions                : L R
Sampling rate                    : 48.0 KHz
Resolution                       : 16 bits
Stream size                      : 71.0 MiB (16%)
Encoded date                     : UTC 2010-04-12 18:34:24
Tagged date                      : UTC 2010-04-12 18:34:29

Wyatt Earp (Kurt Russell), a retired peace officer with a legendary reputation, re-unites with his brothers Virgil (Sam Elliott) and Morgan (Bill Paxton) in Tucson, Arizona, where they venture on towards Tombstone, a small but growing mining town, to settle down. There they encounter Wyatt's longtime friend Doc Holliday (Val Kilmer), a southern gambler, expert gunslinger, and shady character who seeks relief from his tuberculosis in Arizona's drier environment.
 
http://www.imdb.com/title/tt0108358/

PLEASE SEED AND ENJOY THANKS

SCREEN SHOTS
 
http://img204.imageshack.us/img204/6387/tombstoneh264vicemp4thu.jpg

To view H264 files on you,re PC i recomend VLC media player or Media player classic

To burn MP4 H264 files to disc i recomend convert X to dvd click link below thanks
    
http://thepiratebay.org/torrent/5018839/VSO.Convert-X.to.DVD.3.5.3%28vice%29
